<svg width="147" height="71" viewBox="0 0 147 71" fill="none" xmlns="http://www.w3.org/2000/svg">
  <path d="M15.2625 14.2699V20.6927H11.866V14.2699H15.2625ZM14.8488 49.8243V55.6811H11.4523V49.8243H14.8488ZM17.2438 42.6829C17.2438 41.8556 17.0914 41.1516 16.7866 40.571C16.4963 39.9904 16.0173 39.4751 15.3496 39.0251C14.6964 38.5752 13.811 38.1397 12.6933 37.7188C10.8064 36.9931 9.14443 36.2238 7.70745 35.4109C6.28498 34.5836 5.17459 33.5603 4.37626 32.341C3.57794 31.1072 3.17878 29.5469 3.17878 27.6599C3.17878 25.8601 3.60697 24.2997 4.46335 22.9788C5.31974 21.658 6.50271 20.6419 8.01227 19.9307C9.53634 19.2049 11.3072 18.8421 13.3247 18.8421C14.8633 18.8421 16.2568 19.0743 17.5051 19.5388C18.7533 19.9888 19.8275 20.6564 20.7274 21.5419C21.6273 22.4128 22.3168 23.4796 22.7958 24.7424C23.2748 26.0052 23.5143 27.4495 23.5143 29.0751H17.2656C17.2656 28.2042 17.1712 27.4349 16.9825 26.7673C16.7938 26.0996 16.518 25.5407 16.1552 25.0908C15.8068 24.6408 15.3859 24.307 14.8924 24.0892C14.3989 23.857 13.8545 23.7409 13.2594 23.7409C12.374 23.7409 11.6483 23.9151 11.0822 24.2634C10.5161 24.6118 10.1024 25.0835 9.84115 25.6786C9.5944 26.2592 9.47102 26.9269 9.47102 27.6817C9.47102 28.422 9.60166 29.0679 9.86292 29.6194C10.1387 30.171 10.6104 30.679 11.2781 31.1435C11.9458 31.5935 12.8603 32.058 14.0215 32.537C15.9084 33.2627 17.5631 34.0465 18.9856 34.8884C20.4081 35.7302 21.5184 36.7608 22.3168 37.9801C23.1151 39.1993 23.5143 40.7524 23.5143 42.6394C23.5143 44.5118 23.0788 46.1085 22.2079 47.4293C21.337 48.7357 20.1178 49.7372 18.5501 50.4339C16.9825 51.1161 15.1681 51.4572 13.107 51.4572C11.7716 51.4572 10.4435 51.283 9.12266 50.9347C7.8018 50.5718 6.60431 49.9912 5.53021 49.1929C4.4561 48.3946 3.59971 47.335 2.96105 46.0141C2.3224 44.6787 2.00307 43.0385 2.00307 41.0935H8.27354C8.27354 42.1531 8.41143 43.0385 8.68721 43.7498C8.963 44.4465 9.32587 45.0053 9.77583 45.4262C10.2403 45.8327 10.7629 46.123 11.3435 46.2971C11.9241 46.4713 12.5119 46.5584 13.107 46.5584C14.036 46.5584 14.798 46.3915 15.3931 46.0577C16.0028 45.7238 16.46 45.2666 16.7648 44.686C17.0841 44.0909 17.2438 43.4232 17.2438 42.6829Z" fill="#F1BF42"/>
  <path d="M19.1966 14.2699V20.6927H15.8001V14.2699H19.1966ZM18.7829 49.8243V55.6811H15.3864V49.8243H18.7829ZM21.1779 42.6829C21.1779 41.8556 21.0255 41.1516 20.7206 40.571C20.4303 39.9904 19.9514 39.4751 19.2837 39.0251C18.6305 38.5752 17.7451 38.1397 16.6274 37.7188C14.7405 36.9931 13.0785 36.2238 11.6415 35.4109C10.2191 34.5836 9.10867 33.5603 8.31035 32.341C7.51202 31.1072 7.11286 29.5469 7.11286 27.6599C7.11286 25.8601 7.54105 24.2997 8.39744 22.9788C9.25382 21.658 10.4368 20.6419 11.9463 19.9307C13.4704 19.2049 15.2412 18.8421 17.2588 18.8421C18.7974 18.8421 20.1909 19.0743 21.4391 19.5388C22.6874 19.9888 23.7615 20.6564 24.6615 21.5419C25.5614 22.4128 26.2509 23.4796 26.7298 24.7424C27.2088 26.0052 27.4483 27.4495 27.4483 29.0751H21.1996C21.1996 28.2042 21.1053 27.4349 20.9166 26.7673C20.7279 26.0996 20.4521 25.5407 20.0892 25.0908C19.7409 24.6408 19.32 24.307 18.8264 24.0892C18.3329 23.857 17.7886 23.7409 17.1935 23.7409C16.3081 23.7409 15.5823 23.9151 15.0163 24.2634C14.4502 24.6118 14.0365 25.0835 13.7752 25.6786C13.5285 26.2592 13.4051 26.9269 13.4051 27.6817C13.4051 28.422 13.5357 29.0679 13.797 29.6194C14.0728 30.171 14.5445 30.679 15.2122 31.1435C15.8799 31.5935 16.7943 32.058 17.9555 32.537C19.8425 33.2627 21.4972 34.0465 22.9197 34.8884C24.3421 35.7302 25.4525 36.7608 26.2509 37.9801C27.0492 39.1993 27.4483 40.7524 27.4483 42.6394C27.4483 44.5118 27.0129 46.1085 26.142 47.4293C25.2711 48.7357 24.0518 49.7372 22.4842 50.4339C20.9166 51.1161 19.1022 51.4572 17.0411 51.4572C15.7057 51.4572 14.3776 51.283 13.0567 50.9347C11.7359 50.5718 10.5384 49.9912 9.46429 49.1929C8.39018 48.3946 7.5338 47.335 6.89514 46.0141C6.25648 44.6787 5.93715 43.0385 5.93715 41.0935H12.2076C12.2076 42.1531 12.3455 43.0385 12.6213 43.7498C12.8971 44.4465 13.26 45.0053 13.7099 45.4262C14.1744 45.8327 14.6969 46.123 15.2775 46.2971C15.8581 46.4713 16.446 46.5584 17.0411 46.5584C17.9701 46.5584 18.7321 46.3915 19.3272 46.0577C19.9368 45.7238 20.3941 45.2666 20.6989 44.686C21.0182 44.0909 21.1779 43.4232 21.1779 42.6829Z" fill="#B88E23"/>
  <path d="M49.2604 25.8104H52.4336L57.1059 39.1653L61.7782 25.8104H64.9514L58.3802 44H55.8316L49.2604 25.8104ZM47.5489 25.8104H50.7096L51.2842 38.828V44H47.5489V25.8104ZM63.5022 25.8104H66.6754V44H62.9276V38.828L63.5022 25.8104ZM71.6725 25.8104H74.8457L79.518 39.1653L84.1904 25.8104H87.3635L80.7923 44H78.2438L71.6725 25.8104ZM69.961 25.8104H73.1217L73.6964 38.828V44H69.961V25.8104ZM85.9144 25.8104H89.0875V44H85.3397V38.828L85.9144 25.8104ZM91.5736 37.3788V37.1164C91.5736 36.1253 91.7152 35.2134 91.9984 34.3805C92.2816 33.5393 92.6938 32.8106 93.2352 32.1943C93.7765 31.578 94.4428 31.0991 95.234 30.7576C96.0252 30.4078 96.933 30.2329 97.9575 30.2329C98.9819 30.2329 99.8939 30.4078 100.693 30.7576C101.493 31.0991 102.163 31.578 102.705 32.1943C103.254 32.8106 103.671 33.5393 103.954 34.3805C104.237 35.2134 104.379 36.1253 104.379 37.1164V37.3788C104.379 38.3616 104.237 39.2735 103.954 40.1147C103.671 40.9476 103.254 41.6763 102.705 42.301C102.163 42.9173 101.497 43.3962 100.706 43.7377C99.9147 44.0791 99.0069 44.2499 97.9824 44.2499C96.958 44.2499 96.0461 44.0791 95.2465 43.7377C94.4553 43.3962 93.7849 42.9173 93.2352 42.301C92.6938 41.6763 92.2816 40.9476 91.9984 40.1147C91.7152 39.2735 91.5736 38.3616 91.5736 37.3788ZM95.1716 37.1164V37.3788C95.1716 37.9451 95.2215 38.474 95.3215 38.9654C95.4214 39.4568 95.5797 39.8899 95.7962 40.2646C96.0211 40.6311 96.3126 40.9184 96.6707 41.1266C97.0288 41.3349 97.4661 41.439 97.9824 41.439C98.4822 41.439 98.9111 41.3349 99.2692 41.1266C99.6273 40.9184 99.9147 40.6311 100.131 40.2646C100.348 39.8899 100.506 39.4568 100.606 38.9654C100.714 38.474 100.768 37.9451 100.768 37.3788V37.1164C100.768 36.5668 100.714 36.0504 100.606 35.5673C100.506 35.076 100.344 34.6429 100.119 34.2681C99.9022 33.885 99.6148 33.5851 99.2567 33.3686C98.8986 33.1521 98.4655 33.0438 97.9575 33.0438C97.4494 33.0438 97.0163 33.1521 96.6582 33.3686C96.3084 33.5851 96.0211 33.885 95.7962 34.2681C95.5797 34.6429 95.4214 35.076 95.3215 35.5673C95.2215 36.0504 95.1716 36.5668 95.1716 37.1164ZM110.113 33.3686V44H106.515V30.4828H109.888L110.113 33.3686ZM109.588 36.7666H108.614C108.614 35.7672 108.743 34.8677 109.001 34.0682C109.259 33.2603 109.622 32.5732 110.088 32.0069C110.554 31.4322 111.108 30.995 111.75 30.6951C112.399 30.387 113.124 30.2329 113.923 30.2329C114.556 30.2329 115.135 30.3245 115.66 30.5077C116.185 30.691 116.634 30.9825 117.009 31.3822C117.392 31.782 117.684 32.3109 117.884 32.9688C118.092 33.6268 118.196 34.4305 118.196 35.3799V44H114.573V35.3675C114.573 34.7678 114.49 34.3014 114.323 33.9683C114.157 33.6351 113.911 33.4019 113.586 33.2687C113.27 33.1271 112.878 33.0563 112.412 33.0563C111.929 33.0563 111.508 33.1521 111.15 33.3436C110.8 33.5352 110.509 33.8017 110.275 34.1432C110.051 34.4763 109.88 34.8677 109.763 35.3175C109.647 35.7672 109.588 36.2503 109.588 36.7666ZM127.153 44.2499C126.104 44.2499 125.163 44.0833 124.33 43.7501C123.497 43.4087 122.789 42.9381 122.206 42.3385C121.631 41.7388 121.19 41.0434 120.882 40.2521C120.574 39.4526 120.42 38.6031 120.42 37.7036V37.2039C120.42 36.1795 120.565 35.2425 120.857 34.393C121.148 33.5435 121.565 32.8064 122.106 32.1818C122.656 31.5571 123.322 31.0782 124.105 30.7451C124.888 30.4036 125.771 30.2329 126.753 30.2329C127.711 30.2329 128.561 30.3911 129.302 30.7076C130.043 31.0241 130.664 31.4739 131.163 32.0569C131.671 32.6398 132.055 33.3394 132.313 34.1556C132.571 34.9635 132.7 35.863 132.7 36.8541V38.3532H121.956V35.9546H129.165V35.6798C129.165 35.1801 129.073 34.7345 128.89 34.343C128.715 33.9433 128.448 33.6268 128.09 33.3936C127.732 33.1604 127.274 33.0438 126.716 33.0438C126.241 33.0438 125.833 33.1479 125.492 33.3561C125.15 33.5643 124.871 33.8558 124.655 34.2306C124.446 34.6054 124.288 35.0468 124.18 35.5548C124.08 36.0546 124.03 36.6042 124.03 37.2039V37.7036C124.03 38.245 124.105 38.7447 124.255 39.2028C124.413 39.6608 124.634 40.0564 124.917 40.3896C125.208 40.7227 125.558 40.9809 125.966 41.1641C126.383 41.3474 126.853 41.439 127.378 41.439C128.028 41.439 128.632 41.314 129.19 41.0642C129.756 40.806 130.243 40.4187 130.651 39.9024L132.4 41.8013C132.117 42.2094 131.73 42.6008 131.238 42.9756C130.755 43.3504 130.172 43.6585 129.489 43.9001C128.806 44.1333 128.028 44.2499 127.153 44.2499ZM138.584 42.4759L142.17 30.4828H146.03L140.596 46.0363C140.479 46.3778 140.321 46.7443 140.121 47.1357C139.929 47.5271 139.667 47.8978 139.334 48.2476C139.009 48.6057 138.597 48.8972 138.097 49.1221C137.606 49.3469 137.002 49.4594 136.285 49.4594C135.944 49.4594 135.665 49.4385 135.448 49.3969C135.232 49.3553 134.974 49.297 134.674 49.222V46.586C134.766 46.586 134.861 46.586 134.961 46.586C135.061 46.5943 135.157 46.5985 135.249 46.5985C135.723 46.5985 136.111 46.5444 136.41 46.4361C136.71 46.3278 136.952 46.1613 137.135 45.9364C137.318 45.7198 137.464 45.4367 137.572 45.0869L138.584 42.4759ZM137.085 30.4828L140.021 40.2771L140.533 44.0874L138.084 44.3498L133.225 30.4828H137.085Z" fill="#E1E1E6"/>
</svg>  